<svg version="1.2" xmlns="http://www.w3.org/2000/svg" viewBox="0 0 803 954" width="803" height="954">
	<title>primer-icon</title>
	<style>
		.s0 { fill: #2a2a36 } 
		.s1 { fill: #82bb45 } 
		.s2 { fill: #969696 } 
	</style>
	<g id="Primer">
		<path id="Path 0" fill-rule="evenodd" class="s0" d="m398.8 0.1c14.4 0 33.1 0.4 41.4 0.9 8.4 0.6 21.2 1.7 28.3 2.6 7.1 0.8 19.5 2.6 27.5 4 8 1.3 19.7 3.6 26 5 6.3 1.4 18 4.3 26 6.4 8 2.2 20.6 5.9 28 8.3 7.4 2.5 16.4 5.6 20 7 3.6 1.4 11.7 4.8 18 7.5 6.3 2.7 15.8 7.1 21 9.7 5.2 2.6 14.7 7.7 21 11.3 6.3 3.6 17.4 10.5 24.5 15.3 7.1 4.8 18 12.7 24 17.5 6 4.9 17.6 15.4 25.6 23.4 8 8 17.6 18.3 21.3 23 3.7 4.7 10.1 13.4 14.1 19.5 4 6.1 10 16.2 13.3 22.5 3.3 6.3 7.6 15.6 9.5 20.5 2 4.9 5 13.9 6.8 20 1.7 6.1 4.1 15.5 5.2 21 2 9.6 2.1 13.9 2.8 200l-2.9 5.5c-2.3 4.6-3.8 6-8.3 8.3-5.3 2.7-5.7 2.8-40.9 2.7l-0.5 465.5-2.3 5c-1.3 2.7-3.6 6.6-5.1 8.5-1.6 1.9-4.6 4.7-6.7 6.2-2.2 1.5-6.4 3.7-9.4 4.8-5.5 2-6.8 2-325 2-318.2 0-319.5 0-325-2-3-1.1-7.2-3.3-9.4-4.8-2.1-1.5-5.1-4.3-6.7-6.2-1.5-1.9-3.8-5.8-7.4-13.5l-0.5-465.5h-18.3c-18 0.1-18.3 0-23.6-2.7-4.5-2.3-6-3.7-11.2-13.8l0.3-94.5c0.4-93.3 0.4-94.6 2.6-105.5 1.2-6.1 3.6-15.7 5.3-21.5 1.6-5.8 4.6-14.6 6.6-19.5 1.9-4.9 5.8-13.5 8.7-19 2.8-5.5 8.2-14.9 12.1-21 3.9-6.1 10.6-15.5 15-21 4.3-5.5 14.5-16.6 22.5-24.6 8-8 19.4-18.5 25.5-23.3 6-4.8 16.8-12.7 24-17.5 7.1-4.8 18.2-11.7 24.5-15.3 6.3-3.6 15.8-8.7 21-11.3 5.2-2.6 14.7-7 21-9.7 6.3-2.7 14.4-6.1 18-7.5 3.6-1.4 12.6-4.5 20-7 7.4-2.4 20-6.1 28-8.3 8-2.1 19.7-5 26-6.4 6.3-1.4 18-3.7 26-5 8-1.4 20.6-3.2 28-4.1 7.4-0.9 18.9-2 25.5-2.4 6.6-0.5 23.8-0.9 38.2-1zm-59.2 63.4c-7.7 0.9-21.2 3-30 4.6-8.8 1.7-21.4 4.3-28 5.9-6.6 1.6-17.3 4.5-23.8 6.4-6.4 2-17.9 5.9-25.5 8.7-7.5 2.8-19.3 7.8-26.2 11-6.9 3.2-17.2 8.3-23 11.4-5.8 3.1-15 8.6-20.5 12.2-5.5 3.6-15.2 10.4-21.4 15.2-6.3 4.7-16.6 13.5-22.9 19.6-6.3 6.1-14.4 14.6-17.9 19-3.6 4.4-9.3 12.3-12.8 17.5-3.5 5.2-9.1 15.1-12.4 22-3.4 6.9-7 15.4-8.1 19-1.1 3.6-2.6 9.2-3.4 12.5-0.9 3.3-2 9.8-2.6 14.5-0.5 4.7-1 9.6-1 11 0.1 2.4 0.2 2.4 4.3-1.4 2.3-2.2 6.7-5.1 9.7-6.5l5.5-2.6h645c7.7 3.6 12 6.3 14.4 8.3l4.4 3.7c-1.1-11.6-2.4-19.3-3.5-24.5-1.1-5.2-3.4-13.3-5-18-1.7-4.7-5.4-13.2-8.3-19-2.9-5.8-8-14.6-11.3-19.5-3.3-4.9-9-12.6-12.5-17-3.5-4.4-11.6-12.9-17.9-19-6.3-6.1-16.6-14.9-22.9-19.6-6.2-4.8-15.9-11.6-21.4-15.2-5.5-3.6-14.7-9.1-20.5-12.2-5.8-3.1-16.1-8.2-23-11.4-6.9-3.2-18.7-8.2-26.3-11-7.5-2.8-19-6.7-25.5-8.7-6.4-1.9-17.3-4.9-24.2-6.6-6.9-1.6-19.5-4.2-28-5.8-8.5-1.5-21.6-3.5-29-4.4-7.4-0.9-19.8-2-27.5-2.6-7.7-0.5-24.6-0.9-37.5-0.9-12.9 0.1-28.5 0.5-34.5 1-6.1 0.4-17.3 1.5-25 2.4z"/>
		<path id="Path 1" class="s1" d="m369 20.7c-2.5 0.1-10.4 0.8-17.5 1.3-7.1 0.6-19.3 2-27 3.1-7.7 1.1-19.9 3.1-27 4.5-7.1 1.4-21.1 4.6-31 7.1-9.9 2.5-24.1 6.5-31.5 9-7.4 2.5-18.7 6.5-25 9-6.3 2.4-20.1 8.7-30.5 13.8-10.4 5.1-23.9 12.3-30 16-6.1 3.7-15.9 10.1-21.9 14.3-6 4.3-16.4 12.2-23 17.8-6.7 5.6-16.1 14.3-21.1 19.5-5 5.2-12.1 13.3-15.8 17.9-3.8 4.7-10 13.2-13.8 19-3.9 5.8-9.6 15.7-12.8 22-3.2 6.3-7.5 15.8-9.4 21-1.9 5.2-4.5 13.1-5.6 17.5-1.1 4.4-2.8 11.6-3.8 16-1.5 7.2-1.7 16.9-2 100.3l-0.3 92.2h33v-20h-13c0.6-161.9 0.6-162.6 2.9-173 1.2-5.8 3.6-14.6 5.3-19.5 1.6-4.9 5.6-14.6 8.9-21.5 3.3-6.9 9-17 12.6-22.5 3.6-5.5 8.5-12.5 10.8-15.5 2.4-3 7.7-9.2 11.9-13.8 4.2-4.5 11.5-11.9 16.4-16.3 4.8-4.5 12.8-11.3 17.7-15.2 4.9-3.9 15.8-11.5 24-16.9 8.6-5.7 23.3-14.1 34.5-19.7 10.7-5.3 25.3-12 32.5-14.8 7.2-2.8 19.5-7.2 27.5-9.7 8-2.6 20.6-6.2 28-8.1 7.4-1.8 20.5-4.7 29-6.4 8.5-1.7 22.9-3.9 32-5 9.1-1.1 23.1-2.5 31.3-3.1 8.1-0.5 24.4-1 36.2-1 11.8 0 28.1 0.5 36.3 1 8.1 0.6 22.1 2 31.2 3.1 9.1 1.1 23.5 3.3 32 5 8.5 1.7 21.6 4.6 29 6.4 7.4 1.9 20 5.5 28 8.1 8 2.5 20.4 6.9 27.5 9.7 7.1 2.8 21.8 9.5 32.5 14.8 11.2 5.6 25.9 14 34.5 19.7 8.3 5.4 19 13 24 16.9 5 3.9 12.8 10.6 17.5 15 4.7 4.3 11.2 10.8 14.6 14.3 3.3 3.6 8.5 9.4 11.4 13 2.9 3.6 8.5 11.2 12.3 17 3.8 5.8 9.4 15.4 12.4 21.5 3.1 6.1 7.4 16.4 9.6 23 2.2 6.6 4.9 16.1 6 21 1.9 8.6 2 12.7 2.4 90.8l0.3 81.7h-12v20h32c-0.6-171.2-0.9-185.6-2.3-192-0.8-4.1-2.5-11.3-3.7-16-1.2-4.7-3.8-12.8-5.7-18-1.9-5.2-6.2-14.7-9.4-21-3.2-6.3-8.9-16.2-12.8-22-3.8-5.8-10-14.3-13.8-19-3.7-4.6-10.4-12.2-14.8-16.9-4.4-4.6-12.5-12.3-18-17-5.5-4.7-14.5-12-20-16.1-5.5-4.1-16.3-11.5-24-16.3-7.7-4.8-23-13.2-34-18.7-11-5.4-25.2-11.8-31.5-14.3-6.3-2.5-17.6-6.5-25-9-7.4-2.4-20.7-6.3-29.5-8.6-8.8-2.2-21.6-5.2-28.5-6.6-6.9-1.4-16.6-3.2-21.5-4-4.9-0.8-14.9-2.1-22-2.9-7.1-0.9-19.5-2-27.5-2.6-8-0.5-26-0.9-40-0.8-14 0.1-27.5 0.3-30 0.5zm-286.6 263.2c-1.2 0.4-3.1 1.7-4.3 2.9-1.2 1.2-2.8 3.6-3.6 5.2-1.3 2.7-1.5 39.6-1.2 317.8 0.2 312.9 0.2 314.7 2.2 317.4 1.1 1.5 3.8 3.7 6 4.8 4 2 6 2 320.5 2 314.5 0 316.5 0 320.5-2 2.2-1.1 4.9-3.3 6-4.8 2-2.7 2-4.5 2.2-317.7l0.2-315c-3.1-5.4-5.2-7.9-6.7-9-2.7-2-4.4-2-321.2-2.2-175.2-0.1-319.5 0.2-320.6 0.6z"/>
		<path id="Path 2" class="s0" d="m133.5 334.4l-3.3 3.4-0.2 86.2 7 7c27.4 0 30.9-0.3 30.6-1.2-0.2-0.7-5.6-20.2-12-43.3-6.5-23.1-12.6-45-13.7-48.7-1.3-4.8-2.4-6.8-3.5-6.8-0.9 0-3.1 1.5-4.9 3.4zm351.2-2.6c-0.3 0.4-8.1 17.1-17.5 37.2-9.3 20.1-18.3 39.4-20 43-2.6 5.6-3.7 6.8-7.4 8.5-2.8 1.3-6.1 1.9-9.5 1.7-2.9-0.1-6.5-0.8-8-1.6-1.6-0.8-3.5-2.2-4.4-3.2-0.9-1.1-5.6-11.3-10.4-22.9-4.8-11.5-9.3-22.1-10-23.5-1-1.9-1.5-2.1-1.9-1-0.3 0.8-4.2 14.4-8.6 30.3-4.4 15.8-8 29.2-8 29.7 0 0.7 48 1 142.1 1h142.1l6.8-7v-86l-7-7c-137.9 0-178.1 0.3-178.3 0.8zm-238.7 61l-11.6 37.7c41.9 0.4 66.7 0.4 82.2 0.3l28-0.3c-13.2-47.7-17.3-61.5-17.6-61.5-0.3 0-2.5 4.6-4.8 10.2-2.4 5.7-7.2 16.8-10.5 24.8-5 11.6-6.8 14.7-9.2 16.2-2 1.2-5.1 1.8-9.5 1.8-5.1 0-7.2-0.4-10-2.3-3.3-2.2-4-3.6-14-32.9-5.8-16.8-10.7-30.9-11-31.2-0.3-0.2-5.7 16.5-12 37.2zm-112.5 61.6l-3.3 3.4-0.2 186.2 7 7h166.2l6.8-7v-186l-7-7c-72.4 0-75 0.1-75.4 1.8-0.3 0.9-3 10-6.1 20.2-3.1 10.2-6.3 20.6-7.1 23.3-1.2 4-2 5-5.6 6.7-2.4 1.1-6.2 2-8.5 2-2.4 0-5.8-0.6-7.5-1.3-1.8-0.8-3.8-2-4.5-2.8-0.6-0.8-4.2-12.3-8-25.7l-6.8-24.2h-36.7z"/>
		<path id="Path 3" class="s2" d="m93 608.5v305.5h618l-0.1-611-213.2 0.5-12.4 27 178.9 1 5.8 6.5v86l-6.8 7h-285.2c-1.8 8.1-2.8 11.6-3.5 13-0.7 1.4-3.1 3.3-5.4 4.3-2.2 0.9-5.8 1.7-7.9 1.7-2 0-5.6-0.9-8-2-4-1.9-4.3-2.4-6.5-9.5l-2.2-7.5h-110l-6.2 19.5 75.9 1 5.8 6.5v186l-6.8 7h-166.2l-7-7v-186l6.8-7c31.9 0 36.2-0.3 36.2-1.2 0-0.7-0.4-2.7-0.9-4.3-0.5-1.6-1.7-5.6-2.5-8.8l-1.6-5.7h-31l-7-7v-86c5.3-5.4 7.5-7 8.4-7 0.9 0 1.6-0.1 1.6-0.2 0-0.2-1.8-6.4-3.9-13.8l-3.8-13.5-39.3-0.5z"/>
		<path id="Path 4" class="s0" d="m333.5 454.4l-3.3 3.4-0.2 186.2 7 7h326.2l6.8-7v-186l-7-7h-326.2zm-200 220l-3.3 3.4-0.2 126.2 7 7h246.2l6.8-7v-126l-7-7h-246.2zm280 0l-3.3 3.4-0.2 126.2 7 7h246.2l6.8-7v-126l-7-7h-246.2zm-280 160l-3.3 3.4-0.2 46.2 7 7h526.2l6.8-7v-46l-7-7h-526.2z"/>
	</g>
</svg>